<?xml version="1.0" encoding="UTF-8"?>
<!-- Generator: https://ezgif.com/png-to-svg -->
<svg version="1.1" xmlns="http://www.w3.org/2000/svg" width="459" height="459">
<path d="M0,0 L459,0 L459,459 L0,459 Z " fill="#01A889" transform="translate(0,0)"/>
<path d="M0,0 L33,0 L33,1 L41,1 L41,2 L46,2 L46,3 L49,3 L49,4 L54,4 L54,5 L57,5 L57,6 L60,6 L60,7 L63,7 L63,8 L67,8 L67,9 L70,9 L70,10 L72,10 L72,11 L74,11 L74,12 L76,12 L76,13 L78,13 L78,14 L80,14 L80,15 L82,15 L82,16 L83,16 L83,17 L85,17 L85,18 L87,18 L87,19 L88,19 L88,20 L89,20 L89,21 L90,21 L90,22 L92,22 L92,23 L93,23 L93,24 L94,24 L94,25 L95,25 L95,26 L96,26 L96,27 L97,27 L97,28 L98,28 L98,29 L99,29 L99,30 L100,30 L100,31 L101,31 L101,32 L102,32 L102,34 L103,34 L103,35 L104,35 L104,36 L105,36 L105,38 L106,38 L106,39 L107,39 L107,41 L108,41 L108,43 L109,43 L109,44 L110,44 L110,46 L111,46 L111,48 L112,48 L112,50 L113,50 L113,52 L114,52 L114,55 L115,55 L115,57 L116,57 L116,60 L117,60 L117,63 L118,63 L118,66 L119,66 L119,69 L120,69 L120,74 L121,74 L121,76 L122,76 L122,81 L123,81 L123,86 L124,86 L124,92 L125,92 L125,103 L126,103 L126,130 L38,130 L38,96 L37,96 L37,93 L36,93 L36,90 L35,90 L35,89 L34,89 L34,87 L33,87 L33,86 L31,86 L31,85 L30,85 L30,84 L28,84 L28,83 L25,83 L25,82 L8,82 L8,83 L7,83 L7,84 L6,84 L6,85 L5,85 L5,86 L4,86 L4,87 L3,87 L3,88 L2,88 L2,89 L1,89 L1,91 L0,91 L0,93 L-1,93 L-1,96 L-2,96 L-2,107 L-1,107 L-1,112 L0,112 L0,116 L1,116 L1,118 L2,118 L2,120 L3,120 L3,122 L4,122 L4,124 L5,124 L5,126 L6,126 L6,128 L7,128 L7,129 L8,129 L8,130 L9,130 L9,132 L10,132 L10,133 L11,133 L11,134 L12,134 L12,136 L13,136 L13,137 L14,137 L14,138 L15,138 L15,139 L16,139 L16,140 L17,140 L17,141 L18,141 L18,142 L19,142 L19,143 L20,143 L20,144 L21,144 L21,145 L22,145 L22,146 L23,146 L23,147 L24,147 L24,148 L25,148 L25,149 L26,149 L26,150 L27,150 L27,151 L28,151 L28,152 L29,152 L29,153 L30,153 L30,154 L31,154 L31,155 L32,155 L32,156 L33,156 L33,157 L34,157 L34,158 L35,158 L35,159 L36,159 L36,160 L37,160 L37,161 L38,161 L38,162 L39,162 L39,163 L40,163 L40,164 L41,164 L41,165 L42,165 L42,166 L43,166 L43,167 L44,167 L44,168 L46,168 L46,169 L47,169 L47,170 L48,170 L48,171 L49,171 L49,172 L50,172 L50,173 L51,173 L51,174 L52,174 L52,175 L53,175 L53,176 L54,176 L54,177 L55,177 L55,178 L56,178 L56,179 L57,179 L57,180 L58,180 L58,181 L59,181 L59,182 L60,182 L60,183 L61,183 L61,184 L62,184 L62,185 L63,185 L63,186 L64,186 L64,187 L65,187 L65,188 L66,188 L66,189 L67,189 L67,190 L68,190 L68,191 L69,191 L69,192 L70,192 L70,193 L71,193 L71,194 L73,194 L73,195 L74,195 L74,196 L75,196 L75,197 L76,197 L76,198 L77,198 L77,199 L78,199 L78,200 L79,200 L79,201 L80,201 L80,202 L81,202 L81,204 L82,204 L82,205 L83,205 L83,206 L84,206 L84,207 L85,207 L85,208 L86,208 L86,209 L87,209 L87,210 L88,210 L88,211 L89,211 L89,212 L90,212 L90,213 L91,213 L91,214 L92,214 L92,215 L93,215 L93,216 L94,216 L94,218 L95,218 L95,219 L96,219 L96,220 L97,220 L97,221 L98,221 L98,223 L99,223 L99,224 L100,224 L100,225 L101,225 L101,226 L102,226 L102,227 L103,227 L103,229 L104,229 L104,230 L105,230 L105,232 L106,232 L106,233 L107,233 L107,234 L108,234 L108,236 L109,236 L109,237 L110,237 L110,239 L111,239 L111,241 L112,241 L112,242 L113,242 L113,244 L114,244 L114,246 L115,246 L115,248 L116,248 L116,250 L117,250 L117,252 L118,252 L118,254 L119,254 L119,257 L120,257 L120,259 L121,259 L121,262 L122,262 L122,264 L123,264 L123,269 L124,269 L124,271 L125,271 L125,274 L126,274 L126,280 L127,280 L127,284 L128,284 L128,294 L129,294 L129,299 L130,299 L130,335 L129,335 L129,344 L128,344 L128,353 L127,353 L127,358 L126,358 L126,363 L125,363 L125,369 L124,369 L124,372 L123,372 L123,376 L122,376 L122,380 L121,380 L121,383 L120,383 L120,386 L119,386 L119,389 L118,389 L118,392 L117,392 L117,394 L116,394 L116,396 L115,396 L115,399 L114,399 L114,401 L113,401 L113,403 L112,403 L112,405 L111,405 L111,407 L110,407 L110,408 L109,408 L109,410 L108,410 L108,412 L107,412 L107,413 L106,413 L106,414 L105,414 L105,416 L104,416 L104,417 L103,417 L103,418 L102,418 L102,420 L101,420 L101,421 L100,421 L100,422 L99,422 L99,423 L98,423 L98,424 L97,424 L97,425 L96,425 L96,426 L95,426 L95,427 L94,427 L94,428 L92,428 L92,429 L91,429 L91,430 L90,430 L90,431 L88,431 L88,432 L87,432 L87,433 L86,433 L86,434 L83,434 L83,436 L81,436 L81,437 L79,437 L79,438 L75,438 L75,439 L72,439 L72,440 L71,440 L71,441 L69,441 L69,442 L68,442 L68,443 L64,443 L64,444 L56,444 L56,445 L54,445 L54,446 L48,446 L48,447 L44,447 L44,448 L11,448 L11,447 L2,447 L2,446 L-5,446 L-5,445 L-11,445 L-11,444 L-14,444 L-14,443 L-18,443 L-18,442 L-21,442 L-21,441 L-24,441 L-24,440 L-27,440 L-27,439 L-29,439 L-29,438 L-32,438 L-32,437 L-34,437 L-34,436 L-36,436 L-36,435 L-38,435 L-38,434 L-40,434 L-40,433 L-41,433 L-41,432 L-43,432 L-43,431 L-45,431 L-45,430 L-46,430 L-46,429 L-47,429 L-47,428 L-49,428 L-49,427 L-50,427 L-50,426 L-51,426 L-51,425 L-52,425 L-52,424 L-53,424 L-53,423 L-55,423 L-55,422 L-56,422 L-56,421 L-57,421 L-57,420 L-58,420 L-58,418 L-59,418 L-59,417 L-60,417 L-60,416 L-61,416 L-61,415 L-62,415 L-62,413 L-63,413 L-63,412 L-64,412 L-64,411 L-65,411 L-65,410 L-66,410 L-66,408 L-67,408 L-67,407 L-68,407 L-68,405 L-69,405 L-69,403 L-70,403 L-70,401 L-71,401 L-71,399 L-72,399 L-72,397 L-73,397 L-73,395 L-74,395 L-74,392 L-75,392 L-75,390 L-76,390 L-76,387 L-77,387 L-77,384 L-78,384 L-78,381 L-79,381 L-79,377 L-80,377 L-80,373 L-81,373 L-81,368 L-82,368 L-82,363 L-83,363 L-83,360 L-84,360 L-84,347 L-85,347 L-85,339 L-86,339 L-86,279 L1,279 L1,345 L2,345 L2,350 L3,350 L3,353 L4,353 L4,356 L5,356 L5,358 L6,358 L6,359 L7,359 L7,361 L8,361 L8,362 L9,362 L9,363 L10,363 L10,364 L11,364 L11,365 L13,365 L13,366 L16,366 L16,367 L28,367 L28,366 L30,366 L30,365 L33,365 L33,364 L34,364 L34,363 L36,363 L36,362 L37,362 L37,360 L38,360 L38,359 L39,359 L39,357 L40,357 L40,354 L41,354 L41,352 L42,352 L42,348 L43,348 L43,324 L42,324 L42,315 L41,315 L41,308 L40,308 L40,306 L39,306 L39,301 L38,301 L38,299 L37,299 L37,296 L36,296 L36,294 L35,294 L35,292 L34,292 L34,290 L33,290 L33,288 L32,288 L32,286 L31,286 L31,284 L30,284 L30,283 L29,283 L29,281 L28,281 L28,280 L27,280 L27,279 L26,279 L26,277 L25,277 L25,276 L24,276 L24,275 L23,275 L23,274 L22,274 L22,273 L21,273 L21,271 L20,271 L20,270 L19,270 L19,269 L18,269 L18,268 L17,268 L17,267 L16,267 L16,266 L15,266 L15,265 L14,265 L14,264 L13,264 L13,263 L12,263 L12,262 L11,262 L11,261 L10,261 L10,260 L9,260 L9,259 L8,259 L8,258 L7,258 L7,257 L6,257 L6,256 L5,256 L5,255 L4,255 L4,254 L3,254 L3,253 L2,253 L2,252 L1,252 L1,251 L0,251 L0,250 L-1,250 L-1,249 L-2,249 L-2,248 L-3,248 L-3,247 L-4,247 L-4,246 L-5,246 L-5,245 L-6,245 L-6,244 L-7,244 L-7,243 L-8,243 L-8,242 L-9,242 L-9,241 L-10,241 L-10,240 L-12,240 L-12,239 L-13,239 L-13,238 L-14,238 L-14,237 L-15,237 L-15,236 L-16,236 L-16,235 L-17,235 L-17,234 L-18,234 L-18,233 L-19,233 L-19,232 L-20,232 L-20,231 L-21,231 L-21,230 L-22,230 L-22,229 L-23,229 L-23,228 L-24,228 L-24,227 L-25,227 L-25,226 L-26,226 L-26,225 L-27,225 L-27,224 L-28,224 L-28,223 L-29,223 L-29,222 L-31,222 L-31,221 L-32,221 L-32,220 L-33,220 L-33,219 L-34,219 L-34,218 L-35,218 L-35,217 L-36,217 L-36,216 L-37,216 L-37,215 L-38,215 L-38,214 L-39,214 L-39,213 L-40,213 L-40,212 L-41,212 L-41,211 L-42,211 L-42,210 L-43,210 L-43,209 L-44,209 L-44,208 L-45,208 L-45,207 L-46,207 L-46,206 L-47,206 L-47,205 L-48,205 L-48,204 L-49,204 L-49,203 L-50,203 L-50,202 L-51,202 L-51,201 L-52,201 L-52,199 L-53,199 L-53,198 L-54,198 L-54,197 L-55,197 L-55,196 L-56,196 L-56,195 L-57,195 L-57,193 L-58,193 L-58,192 L-59,192 L-59,191 L-60,191 L-60,190 L-61,190 L-61,188 L-62,188 L-62,187 L-63,187 L-63,185 L-64,185 L-64,184 L-65,184 L-65,182 L-66,182 L-66,181 L-67,181 L-67,179 L-68,179 L-68,178 L-69,178 L-69,176 L-70,176 L-70,174 L-71,174 L-71,172 L-72,172 L-72,170 L-73,170 L-73,168 L-74,168 L-74,167 L-75,167 L-75,164 L-76,164 L-76,162 L-77,162 L-77,159 L-78,159 L-78,157 L-79,157 L-79,154 L-80,154 L-80,152 L-81,152 L-81,147 L-82,147 L-82,143 L-83,143 L-83,139 L-84,139 L-84,133 L-85,133 L-85,123 L-86,123 L-86,100 L-85,100 L-85,92 L-84,92 L-84,84 L-83,84 L-83,77 L-82,77 L-82,73 L-81,73 L-81,69 L-80,69 L-80,66 L-79,66 L-79,63 L-78,63 L-78,60 L-77,60 L-77,57 L-76,57 L-76,55 L-75,55 L-75,52 L-74,52 L-74,50 L-73,50 L-73,48 L-72,48 L-72,47 L-71,47 L-71,45 L-70,45 L-70,43 L-69,43 L-69,41 L-68,41 L-68,40 L-67,40 L-67,38 L-66,38 L-66,37 L-65,37 L-65,35 L-64,35 L-64,34 L-63,34 L-63,33 L-62,33 L-62,32 L-61,32 L-61,30 L-60,30 L-60,29 L-59,29 L-59,28 L-58,28 L-58,27 L-57,27 L-57,26 L-56,26 L-56,25 L-55,25 L-55,24 L-54,24 L-54,23 L-53,23 L-53,22 L-51,22 L-51,21 L-50,21 L-50,20 L-49,20 L-49,19 L-48,19 L-48,18 L-46,18 L-46,17 L-45,17 L-45,16 L-44,16 L-44,15 L-42,15 L-42,14 L-40,14 L-40,13 L-39,13 L-39,12 L-38,12 L-38,11 L-34,11 L-34,10 L-32,10 L-32,9 L-30,9 L-30,8 L-29,8 L-29,7 L-25,7 L-25,6 L-22,6 L-22,5 L-16,5 L-16,4 L-13,4 L-13,3 L-10,3 L-10,2 L-6,2 L-6,1 L0,1 Z " fill="#121212" transform="translate(99,7)"/>
<path d="M0,0 L459,0 L459,459 L0,459 Z M99,7 L99,8 L93,8 L93,9 L89,9 L89,10 L86,10 L86,11 L83,11 L83,12 L77,12 L77,13 L74,13 L74,14 L70,14 L70,15 L69,15 L69,16 L67,16 L67,17 L65,17 L65,18 L61,18 L61,19 L60,19 L60,20 L59,20 L59,21 L57,21 L57,22 L55,22 L55,23 L54,23 L54,24 L53,24 L53,25 L51,25 L51,26 L50,26 L50,27 L49,27 L49,28 L48,28 L48,29 L46,29 L46,30 L45,30 L45,31 L44,31 L44,32 L43,32 L43,33 L42,33 L42,34 L41,34 L41,35 L40,35 L40,36 L39,36 L39,37 L38,37 L38,39 L37,39 L37,40 L36,40 L36,41 L35,41 L35,42 L34,42 L34,44 L33,44 L33,45 L32,45 L32,47 L31,47 L31,48 L30,48 L30,50 L29,50 L29,52 L28,52 L28,54 L27,54 L27,55 L26,55 L26,57 L25,57 L25,59 L24,59 L24,62 L23,62 L23,64 L22,64 L22,67 L21,67 L21,70 L20,70 L20,73 L19,73 L19,76 L18,76 L18,80 L17,80 L17,84 L16,84 L16,91 L15,91 L15,99 L14,99 L14,107 L13,107 L13,130 L14,130 L14,140 L15,140 L15,146 L16,146 L16,150 L17,150 L17,154 L18,154 L18,159 L19,159 L19,161 L20,161 L20,164 L21,164 L21,166 L22,166 L22,169 L23,169 L23,171 L24,171 L24,174 L25,174 L25,175 L26,175 L26,177 L27,177 L27,179 L28,179 L28,181 L29,181 L29,183 L30,183 L30,185 L31,185 L31,186 L32,186 L32,188 L33,188 L33,189 L34,189 L34,191 L35,191 L35,192 L36,192 L36,194 L37,194 L37,195 L38,195 L38,197 L39,197 L39,198 L40,198 L40,199 L41,199 L41,200 L42,200 L42,202 L43,202 L43,203 L44,203 L44,204 L45,204 L45,205 L46,205 L46,206 L47,206 L47,208 L48,208 L48,209 L49,209 L49,210 L50,210 L50,211 L51,211 L51,212 L52,212 L52,213 L53,213 L53,214 L54,214 L54,215 L55,215 L55,216 L56,216 L56,217 L57,217 L57,218 L58,218 L58,219 L59,219 L59,220 L60,220 L60,221 L61,221 L61,222 L62,222 L62,223 L63,223 L63,224 L64,224 L64,225 L65,225 L65,226 L66,226 L66,227 L67,227 L67,228 L68,228 L68,229 L70,229 L70,230 L71,230 L71,231 L72,231 L72,232 L73,232 L73,233 L74,233 L74,234 L75,234 L75,235 L76,235 L76,236 L77,236 L77,237 L78,237 L78,238 L79,238 L79,239 L80,239 L80,240 L81,240 L81,241 L82,241 L82,242 L83,242 L83,243 L84,243 L84,244 L85,244 L85,245 L86,245 L86,246 L87,246 L87,247 L89,247 L89,248 L90,248 L90,249 L91,249 L91,250 L92,250 L92,251 L93,251 L93,252 L94,252 L94,253 L95,253 L95,254 L96,254 L96,255 L97,255 L97,256 L98,256 L98,257 L99,257 L99,258 L100,258 L100,259 L101,259 L101,260 L102,260 L102,261 L103,261 L103,262 L104,262 L104,263 L105,263 L105,264 L106,264 L106,265 L107,265 L107,266 L108,266 L108,267 L109,267 L109,268 L110,268 L110,269 L111,269 L111,270 L112,270 L112,271 L113,271 L113,272 L114,272 L114,273 L115,273 L115,274 L116,274 L116,275 L117,275 L117,276 L118,276 L118,277 L119,277 L119,278 L120,278 L120,280 L121,280 L121,281 L122,281 L122,282 L123,282 L123,283 L124,283 L124,284 L125,284 L125,286 L126,286 L126,287 L127,287 L127,288 L128,288 L128,290 L129,290 L129,291 L130,291 L130,293 L131,293 L131,295 L132,295 L132,297 L133,297 L133,299 L134,299 L134,301 L135,301 L135,303 L136,303 L136,306 L137,306 L137,308 L138,308 L138,313 L139,313 L139,315 L140,315 L140,322 L141,322 L141,331 L142,331 L142,355 L141,355 L141,359 L140,359 L140,361 L139,361 L139,364 L138,364 L138,366 L137,366 L137,367 L136,367 L136,369 L135,369 L135,370 L133,370 L133,371 L132,371 L132,372 L129,372 L129,373 L127,373 L127,374 L115,374 L115,373 L112,373 L112,372 L110,372 L110,371 L109,371 L109,370 L108,370 L108,369 L107,369 L107,368 L106,368 L106,366 L105,366 L105,365 L104,365 L104,363 L103,363 L103,360 L102,360 L102,357 L101,357 L101,352 L100,352 L100,286 L13,286 L13,346 L14,346 L14,354 L15,354 L15,367 L16,367 L16,370 L17,370 L17,375 L18,375 L18,380 L19,380 L19,384 L20,384 L20,388 L21,388 L21,391 L22,391 L22,394 L23,394 L23,397 L24,397 L24,399 L25,399 L25,402 L26,402 L26,404 L27,404 L27,406 L28,406 L28,408 L29,408 L29,410 L30,410 L30,412 L31,412 L31,414 L32,414 L32,415 L33,415 L33,417 L34,417 L34,418 L35,418 L35,419 L36,419 L36,420 L37,420 L37,422 L38,422 L38,423 L39,423 L39,424 L40,424 L40,425 L41,425 L41,427 L42,427 L42,428 L43,428 L43,429 L44,429 L44,430 L46,430 L46,431 L47,431 L47,432 L48,432 L48,433 L49,433 L49,434 L50,434 L50,435 L52,435 L52,436 L53,436 L53,437 L54,437 L54,438 L56,438 L56,439 L58,439 L58,440 L59,440 L59,441 L61,441 L61,442 L63,442 L63,443 L65,443 L65,444 L67,444 L67,445 L70,445 L70,446 L72,446 L72,447 L75,447 L75,448 L78,448 L78,449 L81,449 L81,450 L85,450 L85,451 L88,451 L88,452 L94,452 L94,453 L101,453 L101,454 L110,454 L110,455 L143,455 L143,454 L147,454 L147,453 L153,453 L153,452 L155,452 L155,451 L163,451 L163,450 L167,450 L167,449 L168,449 L168,448 L170,448 L170,447 L171,447 L171,446 L174,446 L174,445 L178,445 L178,444 L180,444 L180,443 L182,443 L182,441 L185,441 L185,440 L186,440 L186,439 L187,439 L187,438 L189,438 L189,437 L190,437 L190,436 L191,436 L191,435 L193,435 L193,434 L194,434 L194,433 L195,433 L195,432 L196,432 L196,431 L197,431 L197,430 L198,430 L198,429 L199,429 L199,428 L200,428 L200,427 L201,427 L201,425 L202,425 L202,424 L203,424 L203,423 L204,423 L204,421 L205,421 L205,420 L206,420 L206,419 L207,419 L207,417 L208,417 L208,415 L209,415 L209,414 L210,414 L210,412 L211,412 L211,410 L212,410 L212,408 L213,408 L213,406 L214,406 L214,403 L215,403 L215,401 L216,401 L216,399 L217,399 L217,396 L218,396 L218,393 L219,393 L219,390 L220,390 L220,387 L221,387 L221,383 L222,383 L222,379 L223,379 L223,376 L224,376 L224,370 L225,370 L225,365 L226,365 L226,360 L227,360 L227,351 L228,351 L228,342 L229,342 L229,306 L228,306 L228,301 L227,301 L227,291 L226,291 L226,287 L225,287 L225,281 L224,281 L224,278 L223,278 L223,276 L222,276 L222,271 L221,271 L221,269 L220,269 L220,266 L219,266 L219,264 L218,264 L218,261 L217,261 L217,259 L216,259 L216,257 L215,257 L215,255 L214,255 L214,253 L213,253 L213,251 L212,251 L212,249 L211,249 L211,248 L210,248 L210,246 L209,246 L209,244 L208,244 L208,243 L207,243 L207,241 L206,241 L206,240 L205,240 L205,239 L204,239 L204,237 L203,237 L203,236 L202,236 L202,234 L201,234 L201,233 L200,233 L200,232 L199,232 L199,231 L198,231 L198,230 L197,230 L197,228 L196,228 L196,227 L195,227 L195,226 L194,226 L194,225 L193,225 L193,223 L192,223 L192,222 L191,222 L191,221 L190,221 L190,220 L189,220 L189,219 L188,219 L188,218 L187,218 L187,217 L186,217 L186,216 L185,216 L185,215 L184,215 L184,214 L183,214 L183,213 L182,213 L182,212 L181,212 L181,211 L180,211 L180,209 L179,209 L179,208 L178,208 L178,207 L177,207 L177,206 L176,206 L176,205 L175,205 L175,204 L174,204 L174,203 L173,203 L173,202 L172,202 L172,201 L170,201 L170,200 L169,200 L169,199 L168,199 L168,198 L167,198 L167,197 L166,197 L166,196 L165,196 L165,195 L164,195 L164,194 L163,194 L163,193 L162,193 L162,192 L161,192 L161,191 L160,191 L160,190 L159,190 L159,189 L158,189 L158,188 L157,188 L157,187 L156,187 L156,186 L155,186 L155,185 L154,185 L154,184 L153,184 L153,183 L152,183 L152,182 L151,182 L151,181 L150,181 L150,180 L149,180 L149,179 L148,179 L148,178 L147,178 L147,177 L146,177 L146,176 L145,176 L145,175 L143,175 L143,174 L142,174 L142,173 L141,173 L141,172 L140,172 L140,171 L139,171 L139,170 L138,170 L138,169 L137,169 L137,168 L136,168 L136,167 L135,167 L135,166 L134,166 L134,165 L133,165 L133,164 L132,164 L132,163 L131,163 L131,162 L130,162 L130,161 L129,161 L129,160 L128,160 L128,159 L127,159 L127,158 L126,158 L126,157 L125,157 L125,156 L124,156 L124,155 L123,155 L123,154 L122,154 L122,153 L121,153 L121,152 L120,152 L120,151 L119,151 L119,150 L118,150 L118,149 L117,149 L117,148 L116,148 L116,147 L115,147 L115,146 L114,146 L114,145 L113,145 L113,144 L112,144 L112,143 L111,143 L111,141 L110,141 L110,140 L109,140 L109,139 L108,139 L108,137 L107,137 L107,136 L106,136 L106,135 L105,135 L105,133 L104,133 L104,131 L103,131 L103,129 L102,129 L102,127 L101,127 L101,125 L100,125 L100,123 L99,123 L99,119 L98,119 L98,114 L97,114 L97,103 L98,103 L98,100 L99,100 L99,98 L100,98 L100,96 L101,96 L101,95 L102,95 L102,94 L103,94 L103,93 L104,93 L104,92 L105,92 L105,91 L106,91 L106,90 L107,90 L107,89 L124,89 L124,90 L127,90 L127,91 L129,91 L129,92 L130,92 L130,93 L132,93 L132,94 L133,94 L133,96 L134,96 L134,97 L135,97 L135,100 L136,100 L136,103 L137,103 L137,137 L225,137 L225,110 L224,110 L224,99 L223,99 L223,93 L222,93 L222,88 L221,88 L221,83 L220,83 L220,81 L219,81 L219,76 L218,76 L218,73 L217,73 L217,70 L216,70 L216,67 L215,67 L215,64 L214,64 L214,62 L213,62 L213,59 L212,59 L212,57 L211,57 L211,55 L210,55 L210,53 L209,53 L209,51 L208,51 L208,50 L207,50 L207,48 L206,48 L206,46 L205,46 L205,45 L204,45 L204,43 L203,43 L203,42 L202,42 L202,41 L201,41 L201,39 L200,39 L200,38 L199,38 L199,37 L198,37 L198,36 L197,36 L197,35 L196,35 L196,34 L195,34 L195,33 L194,33 L194,32 L193,32 L193,31 L192,31 L192,30 L191,30 L191,29 L189,29 L189,28 L188,28 L188,27 L187,27 L187,26 L186,26 L186,25 L184,25 L184,24 L182,24 L182,23 L181,23 L181,22 L179,22 L179,21 L177,21 L177,20 L175,20 L175,19 L173,19 L173,18 L171,18 L171,17 L169,17 L169,16 L166,16 L166,15 L162,15 L162,14 L159,14 L159,13 L156,13 L156,12 L153,12 L153,11 L148,11 L148,10 L145,10 L145,9 L140,9 L140,8 L132,8 L132,7 Z M232,11 L232,451 L366,451 L366,450 L370,450 L370,449 L377,449 L377,448 L378,448 L378,447 L382,447 L382,446 L388,446 L388,445 L390,445 L390,444 L393,444 L393,443 L395,443 L395,442 L398,442 L398,441 L399,441 L399,440 L401,440 L401,439 L403,439 L403,438 L405,438 L405,437 L407,437 L407,436 L408,436 L408,435 L410,435 L410,434 L411,434 L411,433 L412,433 L412,432 L414,432 L414,431 L415,431 L415,430 L416,430 L416,429 L417,429 L417,428 L418,428 L418,427 L419,427 L419,426 L420,426 L420,425 L421,425 L421,423 L422,423 L422,422 L423,422 L423,421 L424,421 L424,419 L425,419 L425,418 L426,418 L426,417 L427,417 L427,415 L428,415 L428,414 L429,414 L429,412 L430,412 L430,410 L431,410 L431,408 L432,408 L432,406 L433,406 L433,404 L434,404 L434,402 L435,402 L435,400 L436,400 L436,397 L437,397 L437,395 L438,395 L438,392 L439,392 L439,390 L440,390 L440,385 L441,385 L441,383 L442,383 L442,378 L443,378 L443,373 L444,373 L444,368 L445,368 L445,363 L446,363 L446,358 L447,358 L447,344 L448,344 L448,336 L449,336 L449,102 L448,102 L448,91 L447,91 L447,86 L446,86 L446,80 L445,80 L445,76 L444,76 L444,72 L443,72 L443,69 L442,69 L442,66 L441,66 L441,64 L440,64 L440,61 L439,61 L439,59 L438,59 L438,57 L437,57 L437,55 L436,55 L436,53 L435,53 L435,51 L434,51 L434,49 L433,49 L433,48 L432,48 L432,46 L431,46 L431,45 L430,45 L430,43 L429,43 L429,42 L428,42 L428,41 L427,41 L427,40 L426,40 L426,39 L425,39 L425,38 L424,38 L424,37 L423,37 L423,36 L422,36 L422,34 L421,34 L421,33 L419,33 L419,32 L418,32 L418,31 L417,31 L417,30 L416,30 L416,29 L414,29 L414,28 L413,28 L413,27 L411,27 L411,26 L410,26 L410,25 L408,25 L408,24 L407,24 L407,23 L405,23 L405,22 L403,22 L403,21 L400,21 L400,20 L398,20 L398,19 L396,19 L396,18 L392,18 L392,17 L389,17 L389,16 L386,16 L386,15 L382,15 L382,14 L377,14 L377,13 L370,13 L370,12 L364,12 L364,11 Z " fill="#F3F3F3" transform="translate(0,0)"/>
<path d="M0,0 L15,0 L15,1 L23,1 L23,2 L26,2 L26,3 L30,3 L30,4 L31,4 L31,5 L32,5 L32,6 L33,6 L33,7 L34,7 L34,8 L35,8 L35,9 L36,9 L36,11 L37,11 L37,16 L38,16 L38,23 L39,23 L39,269 L38,269 L38,272 L37,272 L37,274 L36,274 L36,276 L35,276 L35,278 L34,278 L34,279 L33,279 L33,280 L31,280 L31,281 L30,281 L30,282 L29,282 L29,283 L27,283 L27,284 L23,284 L23,285 L0,285 Z " fill="#F4F4F4" transform="translate(321,88)"/>
</svg>
