<?xml version="1.0" encoding="UTF-8"?>
<!-- Generator: https://ezgif.com/png-to-svg -->
<svg version="1.1" xmlns="http://www.w3.org/2000/svg" width="459" height="459">
<path d="M0 0 C16.9 -0.07 33.8 -0.12 50.7 -0.16 C58.55 -0.17 66.4 -0.19 74.25 -0.23 C81.1 -0.26 87.94 -0.28 94.79 -0.28 C98.41 -0.29 102.03 -0.3 105.65 -0.32 C136.83 -0.5 168.41 2.02 192.06 25 C193.81 26.94 195.42 28.92 197 31 C197.57 31.72 198.14 32.45 198.73 33.2 C213.54 53 218.19 77.9 218.13 102.15 C218.13 103.11 218.13 104.07 218.13 105.06 C218.14 108.24 218.13 111.42 218.13 114.6 C218.13 116.9 218.13 119.19 218.13 121.48 C218.14 127.69 218.14 133.9 218.13 140.1 C218.13 146.61 218.13 153.11 218.14 159.61 C218.14 171.23 218.13 182.85 218.13 194.46 C218.12 204.98 218.13 215.5 218.13 226.03 C218.14 238.26 218.14 250.5 218.13 262.74 C218.13 269.21 218.13 275.68 218.14 282.15 C218.14 288.24 218.14 294.32 218.13 300.4 C218.13 302.63 218.13 304.86 218.13 307.09 C218.14 310.14 218.13 313.18 218.13 316.23 C218.13 317.11 218.13 317.99 218.13 318.89 C218.09 331.81 218.09 331.81 216 336 C216.01 337.73 216.06 339.46 216.12 341.19 C216.21 348.75 214.66 355.65 213 363 C212.67 364.67 212.33 366.33 212 368 C210.25 376.23 207.72 383.46 204 391 C203.5 392.1 202.99 393.21 202.47 394.34 C193.06 414.37 178.94 428.01 158.25 436.37 C155.75 437.07 153.59 437 151 437 C149.85 437.5 148.69 437.99 147.5 438.5 C144.12 439.95 142.54 440.09 139 440 C138.24 440.32 137.48 440.65 136.7 440.98 C133.76 442.09 131.62 442.25 128.49 442.25 C127.4 442.25 126.3 442.26 125.17 442.26 C123.39 442.25 123.39 442.25 121.56 442.24 C120.3 442.24 119.04 442.25 117.74 442.25 C114.28 442.25 110.83 442.25 107.37 442.24 C103.76 442.23 100.14 442.23 96.52 442.23 C90.45 442.23 84.37 442.22 78.3 442.21 C71.28 442.19 64.26 442.18 57.24 442.19 C49.76 442.19 42.28 442.18 34.81 442.17 C32.65 442.17 30.5 442.17 28.35 442.17 C24.33 442.17 20.32 442.16 16.31 442.15 C14.52 442.15 14.52 442.15 12.69 442.15 C11.6 442.14 10.51 442.14 9.38 442.13 C8.43 442.13 7.49 442.13 6.51 442.13 C4.19 442.01 2.22 441.66 0 441 C-0.13 427.43 -0.26 413.85 -0.39 400.28 C-0.45 393.97 -0.51 387.67 -0.57 381.36 C-0.63 375.24 -0.69 369.12 -0.75 363 C-0.77 360.7 -0.79 358.4 -0.81 356.1 C-1.22 315.42 -0.95 274.75 -0.81 234.07 C-0.78 225.94 -0.75 217.8 -0.72 209.67 C-0.67 195.17 -0.62 180.67 -0.57 166.17 C-0.52 152.12 -0.48 138.06 -0.43 124.01 C-0.42 123.13 -0.42 122.26 -0.42 121.36 C-0.4 116.99 -0.39 112.62 -0.37 108.24 C-0.25 72.16 -0.13 36.08 0 0 Z M89 79 C89 172.39 89 265.78 89 362 C92.92 363.96 97.77 363.06 102.06 362.94 C103.08 362.94 104.09 362.93 105.13 362.93 C112.56 362.71 117.59 361.22 123 356 C127.46 349.42 128.73 343.44 128.61 335.62 C128.62 334.62 128.63 333.62 128.63 332.6 C128.64 329.28 128.62 325.97 128.6 322.66 C128.6 320.27 128.61 317.88 128.61 315.5 C128.62 309.71 128.61 303.91 128.58 298.12 C128.55 291.36 128.55 284.61 128.55 277.85 C128.55 265.79 128.53 253.72 128.49 241.66 C128.45 229.97 128.43 218.29 128.43 206.6 C128.43 205.52 128.43 205.52 128.42 204.42 C128.42 203.71 128.42 202.99 128.42 202.25 C128.42 200.8 128.42 199.35 128.42 197.91 C128.42 196.84 128.42 196.84 128.42 195.75 C128.42 184.58 128.4 173.42 128.38 162.25 C128.37 158.22 128.37 154.18 128.37 150.15 C128.36 143.14 128.34 136.14 128.32 129.14 C128.31 126.82 128.31 124.5 128.31 122.18 C129.35 102.79 129.35 102.79 122.81 85.38 C119.48 82.05 116.71 80.74 112 80 C110.85 79.79 109.69 79.59 108.5 79.38 C102.02 78.84 95.5 79 89 79 Z " fill="#01A88A" transform="translate(232,10)"/>
<path d="M0 0 C0.66 0 1.32 0 2 0 C2 0.66 2 1.32 2 2 C2.74 1.79 3.49 1.59 4.25 1.38 C7.48 0.94 8.2 1.52 11 3 C13.32 3.39 15.66 3.73 18 4 C18 4.66 18 5.32 18 6 C18.99 5.67 19.98 5.34 21 5 C25.5 6.23 29.76 8.07 34 10 C34.75 10.34 35.51 10.68 36.28 11.02 C50.02 17.5 60.76 26.66 68.55 39.68 C69.93 42.08 69.93 42.08 72 44 C72.65 45.4 73.25 46.82 73.8 48.26 C74.14 49.13 74.47 49.99 74.82 50.88 C75.17 51.81 75.52 52.73 75.88 53.69 C76.41 55.11 76.41 55.11 76.96 56.56 C86.07 81.08 87 103.37 87 130 C57.96 130 28.92 130 -1 130 C-1.33 119.11 -1.66 108.22 -2 97 C-4.92 88.62 -4.92 88.62 -8.14 86.25 C-8.84 85.98 -9.53 85.71 -10.25 85.44 C-10.96 85.15 -11.66 84.86 -12.39 84.56 C-12.92 84.37 -13.45 84.19 -14 84 C-14 83.34 -14 82.68 -14 82 C-14.54 82.17 -15.08 82.35 -15.64 82.52 C-18.48 83.1 -20.93 82.84 -23.81 82.62 C-28.34 82.59 -30.75 82.89 -34.06 86.06 C-38.46 91.41 -40.56 96.64 -40.28 103.55 C-37.98 123.52 -24.04 137.3 -10.45 150.76 C-8.5 152.69 -6.56 154.63 -4.62 156.56 C0.83 162 6.27 167.36 12.13 172.35 C16.97 176.63 21.4 181.37 25.93 185.97 C30.25 190.33 34.63 194.48 39.28 198.48 C41.51 200.45 43.48 202.57 45.44 204.81 C46.19 205.67 46.94 206.52 47.72 207.41 C48.47 208.26 49.22 209.12 50 210 C50.73 210.79 51.46 211.59 52.22 212.41 C69.31 230.94 82.34 251.96 87.56 276.92 C87.85 278.27 88.14 279.62 88.46 280.96 C95.36 311.07 91.81 345.47 84.47 375.09 C84.03 376.87 83.62 378.67 83.22 380.46 C81.08 389.68 77.32 397.49 72.94 405.81 C72.6 406.46 72.26 407.11 71.91 407.77 C68.42 414.28 68.42 414.28 66 417 C65.34 417 64.68 417 64 417 C63.84 417.68 63.67 418.36 63.5 419.06 C61.31 423.35 57.88 426.2 54 429 C53.34 429 52.68 429 52 429 C52 429.66 52 430.32 52 431 C49.05 433.74 48.23 434 44 434 C43.67 434.99 43.34 435.98 43 437 C41.87 437.12 40.73 437.25 39.56 437.38 C38.39 437.58 37.21 437.79 36 438 C35.67 438.66 35.34 439.32 35 440 C34.34 439.67 33.68 439.34 33 439 C33 439.66 33 440.32 33 441 C27.53 443.25 22.87 444.38 17 445 C16.67 445.33 16.34 445.66 16 446 C6.79 448.49 -2.72 448.43 -12.19 448.62 C-13.73 448.66 -15.27 448.7 -16.81 448.74 C-20.54 448.84 -24.27 448.92 -28 449 C-28 448.34 -28 447.68 -28 447 C-30.97 447.33 -33.94 447.66 -37 448 C-37 447.34 -37 446.68 -37 446 C-41.29 446 -45.58 446 -50 446 C-50 445.34 -50 444.68 -50 444 C-50.99 444.33 -51.98 444.66 -53 445 C-53 444.34 -53 443.68 -53 443 C-54.32 443.33 -55.64 443.66 -57 444 C-57 443.34 -57 442.68 -57 442 C-57.99 442.33 -58.98 442.66 -60 443 C-60 442.34 -60 441.68 -60 441 C-60.99 441.33 -61.98 441.66 -63 442 C-65.69 441.06 -65.69 441.06 -68 440 C-68 439.34 -68 438.68 -68 438 C-68.99 438.33 -69.98 438.66 -71 439 C-78.86 435.83 -87.25 430.21 -93 424 C-93.66 423.67 -94.32 423.34 -95 423 C-95 422.34 -95 421.68 -95 421 C-95.66 421 -96.32 421 -97 421 C-97 420.01 -97 419.02 -97 418 C-98.32 417.34 -99.64 416.68 -101 416 C-101 415.01 -101 414.02 -101 413 C-102.32 412.34 -103.64 411.68 -105 411 C-105 410.01 -105 409.02 -105 408 C-105.66 408 -106.32 408 -107 408 C-107 407.34 -107 406.68 -107 406 C-107.66 405.67 -108.32 405.34 -109 405 C-109 404.01 -109 403.02 -109 402 C-109.66 401.67 -110.32 401.34 -111 401 C-112.11 398.5 -113.02 395.95 -113.94 393.38 C-114.83 390.97 -114.83 390.97 -116.56 389.5 C-118.88 387.08 -119 384.25 -119 381 C-119.22 379.92 -119.22 379.92 -119.44 378.81 C-120.5 373.51 -121.13 368.42 -121 363 C-121.99 362.67 -122.98 362.34 -124 362 C-123.34 362 -122.68 362 -122 362 C-122.33 361.34 -122.66 360.68 -123 360 C-123.27 357.51 -123.45 355.01 -123.62 352.51 C-124.01 349.96 -124.72 348.22 -126 346 C-125.34 346 -124.68 346 -124 346 C-124 344.02 -124 342.04 -124 340 C-124.66 340 -125.32 340 -126 340 C-125.67 319.54 -125.34 299.08 -125 278 C-103.58 277.96 -103.58 277.96 -94.48 277.95 C-88.26 277.95 -82.04 277.94 -75.82 277.92 C-70.81 277.91 -65.79 277.91 -60.78 277.91 C-58.87 277.9 -56.95 277.9 -55.03 277.89 C-52.36 277.89 -49.68 277.89 -47.01 277.89 C-46.21 277.88 -45.41 277.88 -44.58 277.88 C-39.11 277.89 -39.11 277.89 -38 279 C-37.9 280.96 -37.86 282.92 -37.86 284.87 C-37.85 286.76 -37.85 286.76 -37.84 288.69 C-37.84 289.37 -37.83 290.05 -37.83 290.75 C-37.82 292.88 -37.81 295 -37.79 297.13 C-37.74 303.19 -37.69 309.25 -37.67 315.3 C-37.66 319.01 -37.63 322.71 -37.59 326.41 C-37.58 327.82 -37.58 329.22 -37.58 330.62 C-37.59 342.15 -36.66 353.94 -28.56 362.83 C-26.75 364.19 -25.22 364.6 -23 365 C-23 365.66 -23 366.32 -23 367 C-14.46 366.29 -14.46 366.29 -6 365 C-5.67 364.01 -5.34 363.02 -5 362 C-4.34 362 -3.68 362 -3 362 C-2.71 361.27 -2.43 360.54 -2.13 359.79 C-1.44 358.08 -0.72 356.39 0.06 354.73 C3.01 348.18 3.53 342.63 3.31 335.5 C3.3 334.02 3.3 334.02 3.28 332.51 C3.38 327.59 3.38 327.59 2 323 C1.76 319.33 1.62 315.67 1.48 311.99 C-0.43 289.17 -20.96 269.84 -36.07 254.8 C-37.57 253.31 -39.06 251.81 -40.56 250.3 C-45.33 245.53 -50.15 240.89 -55.28 236.5 C-57.82 234.29 -60.14 231.91 -62.5 229.5 C-65.49 226.47 -68.49 223.5 -71.75 220.75 C-76.01 217.1 -80 213.18 -84 209.25 C-84.68 208.59 -85.37 207.92 -86.07 207.24 C-86.71 206.61 -87.34 205.98 -88 205.33 C-88.58 204.76 -89.16 204.19 -89.75 203.61 C-91 202 -91 202 -91 199 C-91.56 198.79 -92.11 198.59 -92.69 198.38 C-96 196.41 -97.72 194.11 -100 191 C-100 190.01 -100 189.02 -100 188 C-100.99 187.67 -101.98 187.34 -103 187 C-102.67 186.34 -102.34 185.68 -102 185 C-102.99 184.67 -103.98 184.34 -105 184 C-104.67 183.34 -104.34 182.68 -104 182 C-104.66 182 -105.32 182 -106 182 C-106 181.01 -106 180.02 -106 179 C-106.99 178.67 -107.98 178.34 -109 178 C-110.06 175.69 -110.06 175.69 -111 173 C-112.29 169.84 -112.29 169.84 -115 168 C-115.14 167.22 -115.29 166.43 -115.44 165.62 C-115.74 162.97 -115.74 162.97 -117.5 161.62 C-119.87 159.06 -119.67 156.42 -120 153 C-120.19 151.35 -120.37 149.71 -120.56 148.06 C-120.71 146.71 -120.86 145.35 -121 144 C-121.66 144 -122.32 144 -123 144 C-123.06 143.3 -123.12 142.6 -123.18 141.88 C-123.27 140.97 -123.35 140.06 -123.44 139.12 C-123.52 138.22 -123.6 137.32 -123.68 136.38 C-123.87 133.99 -123.87 133.99 -125 132 C-125.04 130 -125.04 128 -125 126 C-125.33 126 -125.66 126 -126 126 C-126.02 121.6 -126.04 117.21 -126.05 112.81 C-126.06 111.31 -126.07 109.82 -126.08 108.32 C-126.09 106.17 -126.09 104.03 -126.1 101.88 C-126.1 100.59 -126.11 99.29 -126.11 97.96 C-126 95 -126 95 -125 94 C-124 90.78 -123.74 87.61 -123.5 84.25 C-123.41 83.18 -123.32 82.11 -123.23 81 C-123.06 78.73 -122.9 76.46 -122.75 74.19 C-121.76 66.52 -118.68 57.78 -115 51 C-114.34 51 -113.68 51 -113 51 C-112.89 50.43 -112.77 49.87 -112.66 49.29 C-108.07 33.33 -91.73 19.2 -78 11 C-74.11 8.87 -70.29 7.17 -66 6 C-65.34 6.33 -64.68 6.66 -64 7 C-63.67 6.34 -63.34 5.68 -63 5 C-57.51 2.8 -51.83 1.74 -46 1 C-45.67 0.67 -45.34 0.34 -45 0 C-42.36 -0.17 -39.74 -0.28 -37.09 -0.35 C-35.89 -0.39 -35.89 -0.39 -34.66 -0.42 C-32.96 -0.47 -31.26 -0.51 -29.56 -0.56 C-26.97 -0.62 -24.39 -0.7 -21.81 -0.78 C-20.15 -0.83 -18.5 -0.87 -16.84 -0.91 C-16.07 -0.94 -15.31 -0.96 -14.52 -0.99 C-9.57 -1.1 -4.91 -0.69 0 0 Z " fill="#131313" transform="translate(138,7)"/>
<path d="M0 0 C17.11 -0.02 34.21 -0.04 51.32 -0.05 C59.26 -0.06 67.21 -0.06 75.15 -0.08 C82.07 -0.09 89 -0.09 95.92 -0.09 C99.59 -0.1 103.25 -0.1 106.92 -0.11 C111.01 -0.11 115.11 -0.11 119.2 -0.11 C120.41 -0.12 121.63 -0.12 122.88 -0.12 C124.55 -0.12 124.55 -0.12 126.27 -0.12 C127.24 -0.12 128.2 -0.12 129.2 -0.12 C132.2 0.01 135.05 0.45 138 1 C138 1.66 138 2.32 138 3 C137.37 3 136.74 3 136.1 3 C120.77 2.98 105.44 2.96 90.12 2.95 C82.71 2.94 75.3 2.94 67.88 2.92 C61.42 2.91 54.95 2.91 48.49 2.91 C45.07 2.9 41.65 2.9 38.23 2.89 C34.4 2.89 30.57 2.89 26.75 2.89 C25.63 2.88 24.51 2.88 23.36 2.88 C22.3 2.88 21.24 2.88 20.15 2.88 C18.8 2.88 18.8 2.88 17.41 2.88 C12.26 3.06 7.13 3.54 2 4 C2 4.6 2 5.2 2 5.81 C2.02 41.98 2.04 78.14 2.05 114.31 C2.05 118.74 2.05 123.17 2.05 127.6 C2.06 128.92 2.06 128.92 2.06 130.27 C2.06 142.48 2.07 154.69 2.07 166.9 C2.09 188.06 2.1 209.21 2.1 230.37 C2.1 231.2 2.1 232.04 2.1 232.89 C2.1 271.62 2.04 310.35 1.77 349.08 C1.77 350.16 1.77 350.16 1.76 351.27 C1.56 380.85 1.27 410.42 1 440 C41.92 440.33 82.84 440.66 125 441 C125 441.33 125 441.66 125 442 C109.29 442.02 93.59 442.04 77.88 442.05 C70.58 442.06 63.29 442.06 56 442.08 C49.64 442.09 43.29 442.09 36.93 442.09 C33.56 442.1 30.2 442.1 26.83 442.11 C23.07 442.11 19.32 442.11 15.56 442.11 C14.44 442.12 13.33 442.12 12.18 442.12 C10.64 442.12 10.64 442.12 9.07 442.12 C7.74 442.12 7.74 442.12 6.38 442.12 C4.12 442.01 2.17 441.64 0 441 C-0.13 427.43 -0.26 413.85 -0.39 400.28 C-0.45 393.97 -0.51 387.67 -0.57 381.36 C-0.63 375.24 -0.69 369.12 -0.75 363 C-0.77 360.7 -0.79 358.4 -0.81 356.1 C-1.22 315.42 -0.95 274.75 -0.81 234.07 C-0.78 225.94 -0.75 217.8 -0.72 209.67 C-0.67 195.17 -0.62 180.67 -0.57 166.17 C-0.52 152.12 -0.48 138.06 -0.43 124.01 C-0.42 123.13 -0.42 122.26 -0.42 121.36 C-0.4 116.99 -0.39 112.62 -0.37 108.24 C-0.25 72.16 -0.13 36.08 0 0 Z " fill="#2EA995" transform="translate(232,10)"/>
<path d="M0 0 C0.99 0.33 1.98 0.66 3 1 C3 91.42 3 181.84 3 275 C2.34 275.33 1.68 275.66 1 276 C-0.2 273.61 -0.12 272.15 -0.12 269.47 C-0.13 268.52 -0.13 267.56 -0.13 266.57 C-0.13 265.51 -0.12 264.45 -0.12 263.36 C-0.12 262.24 -0.12 261.12 -0.12 259.96 C-0.12 256.18 -0.12 252.4 -0.11 248.62 C-0.11 245.92 -0.11 243.22 -0.11 240.52 C-0.11 234.7 -0.11 228.87 -0.11 223.04 C-0.1 214.62 -0.09 206.2 -0.09 197.78 C-0.09 184.11 -0.08 170.45 -0.08 156.78 C-0.07 143.51 -0.06 130.23 -0.05 116.96 C-0.05 116.14 -0.05 115.32 -0.05 114.48 C-0.05 110.37 -0.05 106.27 -0.05 102.17 C-0.04 68.11 -0.02 34.06 0 0 Z " fill="#4EC1AC" transform="translate(319,96)"/>
<path d="" fill="#FFFFFF" transform="translate(0,0)"/>
<path d="" fill="#FFFFFF" transform="translate(0,0)"/>
<path d="" fill="#FFFFFF" transform="translate(0,0)"/>
<path d="" fill="#FFFFFF" transform="translate(0,0)"/>
</svg>
